<?xml version="1.0" encoding="UTF-8"?>
<svg id="Layer_1" xmlns="http://www.w3.org/2000/svg" xmlns:xlink="http://www.w3.org/1999/xlink" viewBox="0 0 275.14 95.72">
  <defs>
    <style>
      .cls-1 {
        fill: #e8dca4;
      }

      .cls-2 {
        fill: none;
      }

      .cls-3 {
        fill: #003e28;
      }

      .cls-4 {
        clip-path: url(#clippath);
      }
    </style>
    <clipPath id="clippath">
      <rect class="cls-2" width="275.14" height="95.72"/>
    </clipPath>
  </defs>
  <g class="cls-4">
    <path class="cls-3" d="M137.57,95.72c75.98,0,137.57-21.43,137.57-47.86S213.55,0,137.57,0,0,21.43,0,47.86s61.59,47.86,137.57,47.86"/>
  </g>
  <g>
    <path class="cls-1" d="M76.64,63.31l2.56-26.54h8.99l2.53,26.54h-5.04l-.37-4.29h-3.21l-.31,4.29h-5.16ZM82.51,54.78h2.41l-1.17-13.5h-.25l-.99,13.5Z"/>
    <path class="cls-1" d="M92.24,63.31v-26.7h5.5v26.7h-5.5Z"/>
    <path class="cls-1" d="M99.72,56.54v-9.08c0-2.14.6-3.85,1.81-5.11,1.21-1.27,2.86-1.9,4.96-1.9s3.75.63,4.96,1.9c1.21,1.27,1.81,2.97,1.81,5.11v9.08c0,4.68-2.26,7.01-6.77,7.01s-6.77-2.34-6.77-7.01ZM107.44,58.92c.21-.31.31-.73.31-1.27v-11.06c0-1.32-.42-1.98-1.27-1.98s-1.27.66-1.27,1.98v11.06c0,.54.1.96.31,1.27.21.31.53.46.96.46s.75-.15.96-.46Z"/>
    <path class="cls-1" d="M115.23,39.17v-3.77h5.41v3.77h-5.41ZM115.23,63.31v-22.62h5.41v22.62h-5.41Z"/>
    <path class="cls-1" d="M124.5,62.66c-.54-.6-.8-1.55-.8-2.87v-14.12h-1.51v-4.11h1.51v-4.79h5.25v4.79h1.54v4.11h-1.54v12.7c0,.39.03.68.09.87.06.19.23.28.5.28.21,0,.4,0,.59-.03.19-.02.31-.03.37-.03v3.71c-.31.08-.76.17-1.34.26s-1.16.14-1.71.14c-1.42,0-2.4-.3-2.94-.9Z"/>
    <path class="cls-1" d="M132.7,61.81c-.65-1.16-.97-2.83-.97-4.99,0-1.77.23-3.13.7-4.08.46-.95,1.11-1.64,1.93-2.09.82-.44,2.08-.93,3.77-1.47l1.48-.49v-2.32c0-.6-.12-1.06-.36-1.38-.24-.32-.52-.48-.85-.48-.29,0-.54.13-.76.4-.22.27-.32.63-.32,1.08v1.36h-5.25v-.74c0-2.22.52-3.81,1.56-4.76,1.04-.95,2.73-1.42,5.08-1.42,1.87,0,3.4.49,4.57,1.47,1.17.98,1.76,2.36,1.76,4.16v17.24h-5.38v-2.69c-.27.93-.7,1.65-1.28,2.16-.59.52-1.28.77-2.09.77-1.75,0-2.95-.58-3.6-1.75ZM139.32,58.84c.17-.34.26-.76.26-1.25v-6.3c-.8.31-1.4.7-1.78,1.17-.38.47-.57,1.13-.57,1.98v2.91c0,1.34.4,2.01,1.21,2.01.41,0,.71-.17.88-.51Z"/>
    <path class="cls-1" d="M154.35,40.69h5.5v1.21c.78-.97,1.86-1.45,3.25-1.45,1.75,0,2.97.59,3.66,1.76.69,1.17,1.04,2.8,1.04,4.88v8.38c0,1.77-.1,3.22-.31,4.34s-.66,2.03-1.36,2.72c-.7.69-1.76,1.04-3.18,1.04s-2.39-.38-3.09-1.14v5.41h-5.5v-27.13ZM162.11,58.67c.14-.45.22-1.11.22-1.98v-9.61c0-.78-.07-1.38-.22-1.79-.14-.41-.47-.62-.99-.62-.85,0-1.27.78-1.27,2.35v9.92c0,.76.09,1.35.26,1.78.17.42.52.63,1.04.63s.81-.23.96-.68Z"/>
    <path class="cls-1" d="M171.13,61.64c-1.01-1.28-1.51-3.18-1.51-5.72v-9.08c0-2.08.6-3.67,1.79-4.76,1.19-1.09,2.86-1.64,5.01-1.64,4.35,0,6.52,2.13,6.52,6.4v1.64c0,1.65-.02,2.99-.06,4.02h-7.85v4.39c0,.78.08,1.4.25,1.84.17.44.51.66,1.05.66.41,0,.71-.12.88-.37.17-.25.28-.53.31-.85.03-.32.05-.79.05-1.41v-2.19h5.38v1.3c0,2.64-.51,4.58-1.53,5.83s-2.78,1.87-5.27,1.87c-2.33,0-4-.64-5.01-1.92ZM177.56,49.8v-2.9c0-1.63-.4-2.44-1.21-2.44-.91,0-1.36.81-1.36,2.44v2.9h2.57Z"/>
    <path class="cls-1" d="M184.88,63.31v-26.7h5.5v26.7h-5.5Z"/>
    <path class="cls-1" d="M192.51,39.17v-3.77h5.41v3.77h-5.41ZM192.51,63.31v-22.62h5.41v22.62h-5.41Z"/>
  </g>
</svg>