<?xml version="1.0" encoding="UTF-8"?>
<svg id="Layer_1" xmlns="http://www.w3.org/2000/svg" xmlns:xlink="http://www.w3.org/1999/xlink" viewBox="0 0 764.46 265.95">
  <defs>
    <style>
      .cls-1 {
        fill: #e8dca4;
      }

      .cls-2 {
        fill: none;
      }

      .cls-3 {
        fill: #003e28;
      }

      .cls-4 {
        clip-path: url(#clippath);
      }
    </style>
    <clipPath id="clippath">
      <rect class="cls-2" width="764.46" height="265.95"/>
    </clipPath>
  </defs>
  <g class="cls-4">
    <path class="cls-3" d="M382.23,265.95c211.1,0,382.23-59.54,382.23-132.98S593.33,0,382.23,0,0,59.54,0,132.98s171.13,132.98,382.23,132.98"/>
  </g>
  <g>
    <path class="cls-1" d="M212.93,175.89l7.13-73.75h24.98l7.04,73.75h-14l-1.03-11.93h-8.93l-.86,11.93h-14.34ZM229.24,152.19h6.7l-3.26-37.52h-.69l-2.75,37.52Z"/>
    <path class="cls-1" d="M256.28,175.89v-74.18h15.28v74.18h-15.28Z"/>
    <path class="cls-1" d="M277.06,157.09v-25.24c0-5.95,1.67-10.69,5.02-14.21,3.35-3.52,7.94-5.28,13.78-5.28s10.43,1.76,13.78,5.28c3.35,3.52,5.02,8.26,5.02,14.21v25.24c0,12.99-6.27,19.49-18.8,19.49s-18.8-6.5-18.8-19.49ZM298.52,163.7c.57-.86.86-2.03.86-3.52v-30.74c0-3.66-1.17-5.5-3.52-5.5s-3.52,1.83-3.52,5.5v30.74c0,1.49.29,2.66.86,3.52.57.86,1.46,1.29,2.66,1.29s2.09-.43,2.66-1.29Z"/>
    <path class="cls-1" d="M320.16,108.84v-10.47h15.03v10.47h-15.03ZM320.16,175.89v-62.85h15.03v62.85h-15.03Z"/>
    <path class="cls-1" d="M345.92,174.09c-1.49-1.66-2.23-4.32-2.23-7.99v-39.24h-4.21v-11.42h4.21v-13.31h14.6v13.31h4.29v11.42h-4.29v35.29c0,1.09.09,1.89.26,2.4.17.51.63.77,1.37.77.57,0,1.12-.03,1.63-.09.52-.06.86-.09,1.03-.09v10.3c-.86.23-2.1.47-3.73.73-1.63.26-3.22.39-4.77.39-3.95,0-6.67-.83-8.16-2.49Z"/>
    <path class="cls-1" d="M368.71,171.73c-1.8-3.23-2.7-7.86-2.7-13.87,0-4.92.64-8.7,1.93-11.33,1.29-2.63,3.08-4.56,5.37-5.79,2.29-1.23,5.78-2.59,10.47-4.08l4.12-1.37v-6.44c0-1.66-.33-2.93-.99-3.82-.66-.89-1.45-1.33-2.36-1.33-.8,0-1.5.37-2.1,1.12-.6.74-.9,1.75-.9,3v3.78h-14.6v-2.06c0-6.18,1.44-10.59,4.34-13.22,2.89-2.63,7.6-3.95,14.12-3.95,5.21,0,9.44,1.36,12.71,4.08,3.26,2.72,4.89,6.57,4.89,11.55v47.91h-14.94v-7.47c-.74,2.58-1.93,4.58-3.56,6.01-1.63,1.43-3.56,2.15-5.8,2.15-4.87,0-8.2-1.62-10-4.85ZM387.08,163.48c.49-.94.73-2.1.73-3.48v-17.51c-2.23.86-3.88,1.95-4.94,3.26-1.06,1.32-1.59,3.15-1.59,5.5v8.07c0,3.72,1.12,5.58,3.35,5.58,1.14,0,1.96-.47,2.45-1.42Z"/>
    <path class="cls-1" d="M428.85,113.04h15.28v3.35c2.17-2.69,5.18-4.04,9.02-4.04,4.86,0,8.26,1.63,10.17,4.89,1.92,3.26,2.88,7.79,2.88,13.57v23.27c0,4.92-.29,8.94-.86,12.06-.57,3.12-1.83,5.64-3.78,7.56-1.95,1.92-4.89,2.88-8.84,2.88s-6.64-1.06-8.59-3.18v15.03h-15.28v-75.38ZM450.4,163.01c.4-1.26.6-3.09.6-5.49v-26.7c0-2.17-.2-3.83-.6-4.98-.4-1.14-1.32-1.72-2.75-1.72-2.35,0-3.52,2.18-3.52,6.53v27.56c0,2.12.24,3.76.73,4.94.49,1.17,1.44,1.76,2.88,1.76s2.26-.63,2.66-1.89Z"/>
    <path class="cls-1" d="M475.47,171.25c-2.81-3.55-4.21-8.84-4.21-15.88v-25.24c0-5.78,1.66-10.19,4.98-13.22,3.32-3.03,7.96-4.55,13.91-4.55,12.08,0,18.12,5.92,18.12,17.77v4.55c0,4.58-.06,8.3-.17,11.16h-21.81v12.19c0,2.18.23,3.88.69,5.11.46,1.23,1.43,1.85,2.92,1.85,1.14,0,1.96-.34,2.45-1.03.49-.69.77-1.47.86-2.36.09-.89.13-2.19.13-3.91v-6.1h14.94v3.61c0,7.33-1.42,12.72-4.25,16.18-2.83,3.46-7.71,5.19-14.64,5.19-6.47,0-11.1-1.77-13.91-5.32ZM493.33,138.37v-8.07c0-4.52-1.12-6.78-3.35-6.78-2.52,0-3.78,2.26-3.78,6.78v8.07h7.13Z"/>
    <path class="cls-1" d="M513.68,175.89v-74.18h15.28v74.18h-15.28Z"/>
    <path class="cls-1" d="M534.88,108.84v-10.47h15.03v10.47h-15.03ZM534.88,175.89v-62.85h15.03v62.85h-15.03Z"/>
  </g>
</svg>